<svg xmlns="http://www.w3.org/2000/svg" xmlns:xlink="http://www.w3.org/1999/xlink" width="889" zoomAndPan="magnify" viewBox="0 0 666.75 149.249994" height="199" preserveAspectRatio="xMidYMid meet" version="1.0"><defs><g/><clipPath id="31d0d78f15"><path d="M 2 33.835938 L 105.269531 33.835938 L 105.269531 124.878906 L 2 124.878906 Z M 2 33.835938 " clip-rule="nonzero"/></clipPath></defs><g fill="#98d86f" fill-opacity="1"><g transform="translate(111.166416, 96.713701)"><g><path d="M 35.015625 -51.21875 L 16.921875 -51.21875 L 16.921875 -40.5625 L 29.640625 -40.5625 L 29.640625 -29.015625 L 16.921875 -29.015625 L 16.921875 0 L 5.375 0 L 5.375 -62.765625 L 35.015625 -62.765625 Z M 35.015625 -51.21875 "/></g></g></g><g fill="#98d86f" fill-opacity="1"><g transform="translate(147.249917, 96.713701)"><g><path d="M 35.015625 -51.125 L 16.921875 -51.125 L 16.921875 -40.03125 L 29.640625 -40.03125 L 29.640625 -28.46875 L 16.921875 -28.46875 L 16.921875 -11.546875 L 35.015625 -11.546875 L 35.015625 0 L 5.375 0 L 5.375 -62.765625 L 35.015625 -62.765625 Z M 35.015625 -51.125 "/></g></g></g><g fill="#98d86f" fill-opacity="1"><g transform="translate(183.333418, 96.713701)"><g><path d="M 39.125 -43.15625 C 39.125 -40.414062 38.914062 -37.726562 38.5 -35.09375 C 38.082031 -32.46875 37.234375 -30.109375 35.953125 -28.015625 C 34.671875 -25.929688 32.773438 -24.320312 30.265625 -23.1875 L 39.046875 0 L 26.6875 0 L 18.53125 -21.671875 L 16.921875 -21.671875 L 16.921875 0 L 5.375 0 L 5.375 -62.765625 L 22.65625 -62.765625 C 33.632812 -62.765625 39.125 -56.226562 39.125 -43.15625 Z M 21.671875 -32.78125 C 22.441406 -32.78125 23.289062 -33.109375 24.21875 -33.765625 C 25.144531 -34.421875 25.9375 -35.460938 26.59375 -36.890625 C 27.25 -38.328125 27.578125 -40.269531 27.578125 -42.71875 C 27.578125 -46 26.890625 -48.296875 25.515625 -49.609375 C 24.148438 -50.921875 22.71875 -51.578125 21.21875 -51.578125 L 16.921875 -51.578125 L 16.921875 -32.78125 Z M 21.671875 -32.78125 "/></g></g></g><g fill="#98d86f" fill-opacity="1"><g transform="translate(223.535687, 96.713701)"><g><path d="M 31.96875 0 L 29.28125 -12.453125 L 19.703125 -12.453125 L 17.1875 0 L 5.375 0 L 18.09375 -62.765625 L 30.359375 -62.765625 L 43.78125 0 Z M 22.03125 -24 L 26.859375 -24 L 24.359375 -35.546875 Z M 22.03125 -24 "/></g></g></g><g fill="#98d86f" fill-opacity="1"><g transform="translate(268.393944, 96.713701)"><g><path d="M 16.921875 -11.546875 L 32.78125 -11.546875 L 32.78125 0 L 5.375 0 L 5.375 -62.765625 L 16.921875 -62.765625 Z M 16.921875 -11.546875 "/></g></g></g><g fill="#98d86f" fill-opacity="1"><g transform="translate(301.343607, 96.713701)"><g/></g></g><g fill="#98d86f" fill-opacity="1"><g transform="translate(322.205572, 96.713701)"><g><path d="M 35.015625 -51.21875 L 16.921875 -51.21875 L 16.921875 -40.5625 L 29.640625 -40.5625 L 29.640625 -29.015625 L 16.921875 -29.015625 L 16.921875 0 L 5.375 0 L 5.375 -62.765625 L 35.015625 -62.765625 Z M 35.015625 -51.21875 "/></g></g></g><g fill="#98d86f" fill-opacity="1"><g transform="translate(358.289061, 96.713701)"><g><path d="M 20.859375 -62.765625 C 24.441406 -62.765625 27.648438 -61.390625 30.484375 -58.640625 C 33.328125 -55.898438 35.566406 -52.15625 37.203125 -47.40625 C 38.847656 -42.664062 39.671875 -37.3125 39.671875 -31.34375 C 39.671875 -25.375 38.847656 -20.03125 37.203125 -15.3125 C 35.566406 -10.59375 33.328125 -6.859375 30.484375 -4.109375 C 27.648438 -1.367188 24.441406 0 20.859375 0 C 17.273438 0 14.066406 -1.367188 11.234375 -4.109375 C 8.398438 -6.859375 6.160156 -10.59375 4.515625 -15.3125 C 2.878906 -20.03125 2.0625 -25.375 2.0625 -31.34375 C 2.0625 -37.3125 2.878906 -42.664062 4.515625 -47.40625 C 6.160156 -52.15625 8.398438 -55.898438 11.234375 -58.640625 C 14.066406 -61.390625 17.273438 -62.765625 20.859375 -62.765625 Z M 20.859375 -11.546875 C 21.578125 -11.546875 22.503906 -12.304688 23.640625 -13.828125 C 24.773438 -15.359375 25.804688 -17.597656 26.734375 -20.546875 C 27.660156 -23.503906 28.125 -27.101562 28.125 -31.34375 C 28.125 -35.632812 27.660156 -39.257812 26.734375 -42.21875 C 25.804688 -45.175781 24.773438 -47.414062 23.640625 -48.9375 C 22.503906 -50.457031 21.578125 -51.21875 20.859375 -51.21875 C 20.148438 -51.21875 19.226562 -50.457031 18.09375 -48.9375 C 16.957031 -47.414062 15.925781 -45.175781 15 -42.21875 C 14.070312 -39.257812 13.609375 -35.632812 13.609375 -31.34375 C 13.609375 -27.101562 14.070312 -23.503906 15 -20.546875 C 15.925781 -17.597656 16.957031 -15.359375 18.09375 -13.828125 C 19.226562 -12.304688 20.148438 -11.546875 20.859375 -11.546875 Z M 20.859375 -11.546875 "/></g></g></g><g fill="#98d86f" fill-opacity="1"><g transform="translate(395.715632, 96.713701)"><g><path d="M 39.125 -43.15625 C 39.125 -40.414062 38.914062 -37.726562 38.5 -35.09375 C 38.082031 -32.46875 37.234375 -30.109375 35.953125 -28.015625 C 34.671875 -25.929688 32.773438 -24.320312 30.265625 -23.1875 L 39.046875 0 L 26.6875 0 L 18.53125 -21.671875 L 16.921875 -21.671875 L 16.921875 0 L 5.375 0 L 5.375 -62.765625 L 22.65625 -62.765625 C 33.632812 -62.765625 39.125 -56.226562 39.125 -43.15625 Z M 21.671875 -32.78125 C 22.441406 -32.78125 23.289062 -33.109375 24.21875 -33.765625 C 25.144531 -34.421875 25.9375 -35.460938 26.59375 -36.890625 C 27.25 -38.328125 27.578125 -40.269531 27.578125 -42.71875 C 27.578125 -46 26.890625 -48.296875 25.515625 -49.609375 C 24.148438 -50.921875 22.71875 -51.578125 21.21875 -51.578125 L 16.921875 -51.578125 L 16.921875 -32.78125 Z M 21.671875 -32.78125 "/></g></g></g><g fill="#98d86f" fill-opacity="1"><g transform="translate(435.917912, 96.713701)"><g><path d="M 25.875 -26.0625 L 25.875 -37.609375 L 42.359375 -37.609375 L 42.359375 -31.875 C 42.359375 -24.59375 41.34375 -18.296875 39.3125 -12.984375 C 37.28125 -7.671875 34.441406 -3.941406 30.796875 -1.796875 C 28.828125 -0.597656 26.738281 0 24.53125 0 C 22.269531 0 20.09375 -0.597656 18 -1.796875 C 15.425781 -3.222656 13.195312 -5.398438 11.3125 -8.328125 C 9.4375 -11.253906 7.976562 -14.6875 6.9375 -18.625 C 5.894531 -22.5625 5.375 -26.800781 5.375 -31.34375 C 5.375 -37.3125 6.207031 -42.648438 7.875 -47.359375 C 9.550781 -52.078125 11.835938 -55.8125 14.734375 -58.5625 C 17.628906 -61.3125 20.925781 -62.6875 24.625 -62.6875 C 27.84375 -62.6875 30.828125 -61.566406 33.578125 -59.328125 C 36.328125 -57.085938 38.566406 -53.90625 40.296875 -49.78125 L 29.734375 -45.3125 C 28.835938 -47.28125 27.910156 -48.738281 26.953125 -49.6875 C 25.992188 -50.644531 25.21875 -51.125 24.625 -51.125 C 23.726562 -51.125 22.664062 -50.332031 21.4375 -48.75 C 20.21875 -47.175781 19.160156 -44.910156 18.265625 -41.953125 C 17.367188 -38.992188 16.921875 -35.457031 16.921875 -31.34375 C 16.921875 -27.519531 17.304688 -24.234375 18.078125 -21.484375 C 18.859375 -18.742188 19.769531 -16.566406 20.8125 -14.953125 C 21.863281 -13.335938 22.835938 -12.289062 23.734375 -11.8125 C 24.023438 -11.632812 24.332031 -11.515625 24.65625 -11.453125 C 24.988281 -11.398438 25.335938 -11.519531 25.703125 -11.8125 C 26.835938 -12.59375 27.941406 -14.191406 29.015625 -16.609375 C 30.085938 -19.023438 30.832031 -22.175781 31.25 -26.0625 Z M 25.875 -26.0625 "/></g></g></g><g fill="#98d86f" fill-opacity="1"><g transform="translate(479.343564, 96.713701)"><g><path d="M 35.015625 -51.125 L 16.921875 -51.125 L 16.921875 -40.03125 L 29.640625 -40.03125 L 29.640625 -28.46875 L 16.921875 -28.46875 L 16.921875 -11.546875 L 35.015625 -11.546875 L 35.015625 0 L 5.375 0 L 5.375 -62.765625 L 35.015625 -62.765625 Z M 35.015625 -51.125 "/></g></g></g><g fill="#98d86f" fill-opacity="1"><g transform="translate(115.451176, 124.126622)"><g><path d="M 12.671875 -8.28125 C 13.203125 -8.28125 13.796875 -8.257812 14.453125 -8.21875 C 15.117188 -8.1875 15.789062 -8.109375 16.46875 -7.984375 C 17.144531 -7.859375 17.765625 -7.648438 18.328125 -7.359375 C 18.898438 -7.066406 19.359375 -6.660156 19.703125 -6.140625 C 20.054688 -5.628906 20.234375 -4.96875 20.234375 -4.15625 C 20.234375 -3.46875 20.085938 -2.882812 19.796875 -2.40625 C 19.503906 -1.925781 19.109375 -1.535156 18.609375 -1.234375 C 18.109375 -0.929688 17.554688 -0.691406 16.953125 -0.515625 C 16.347656 -0.347656 15.726562 -0.226562 15.09375 -0.15625 C 14.457031 -0.0820312 13.847656 -0.0351562 13.265625 -0.015625 C 12.691406 -0.00390625 12.195312 0 11.78125 0 C 10.550781 0 9.484375 -0.03125 8.578125 -0.09375 C 7.679688 -0.164062 6.894531 -0.269531 6.21875 -0.40625 C 5.550781 -0.539062 4.941406 -0.726562 4.390625 -0.96875 C 3.492188 -1.34375 2.78125 -1.78125 2.25 -2.28125 C 1.71875 -2.789062 1.40625 -3.515625 1.3125 -4.453125 L 3.90625 -4.453125 C 3.9375 -4.265625 4.050781 -4.085938 4.25 -3.921875 C 4.457031 -3.765625 4.84375 -3.566406 5.40625 -3.328125 C 6.039062 -3.046875 6.851562 -2.84375 7.84375 -2.71875 C 8.84375 -2.601562 10.15625 -2.546875 11.78125 -2.546875 C 13 -2.546875 13.988281 -2.59375 14.75 -2.6875 C 15.519531 -2.789062 16.117188 -2.921875 16.546875 -3.078125 C 16.972656 -3.242188 17.265625 -3.414062 17.421875 -3.59375 C 17.578125 -3.78125 17.65625 -3.96875 17.65625 -4.15625 C 17.65625 -4.789062 17.21875 -5.203125 16.34375 -5.390625 C 15.46875 -5.585938 14.238281 -5.691406 12.65625 -5.703125 C 12.488281 -5.703125 12.332031 -5.703125 12.1875 -5.703125 C 12.039062 -5.703125 11.90625 -5.710938 11.78125 -5.734375 C 11.601562 -5.734375 11.410156 -5.734375 11.203125 -5.734375 C 11.003906 -5.734375 10.789062 -5.734375 10.5625 -5.734375 C 9.394531 -5.710938 8.273438 -5.734375 7.203125 -5.796875 C 6.128906 -5.859375 5.15625 -6.007812 4.28125 -6.25 C 3.40625 -6.5 2.691406 -6.894531 2.140625 -7.4375 C 1.503906 -8.0625 1.1875 -8.820312 1.1875 -9.71875 C 1.1875 -10.675781 1.460938 -11.4375 2.015625 -12 C 2.566406 -12.5625 3.320312 -12.972656 4.28125 -13.234375 C 5.25 -13.503906 6.363281 -13.679688 7.625 -13.765625 C 8.894531 -13.847656 10.242188 -13.890625 11.671875 -13.890625 C 15.503906 -13.890625 18.054688 -13.125 19.328125 -11.59375 C 19.640625 -11.226562 19.84375 -10.867188 19.9375 -10.515625 C 20.039062 -10.160156 20.097656 -9.863281 20.109375 -9.625 L 17.53125 -9.625 C 17.507812 -9.664062 17.484375 -9.722656 17.453125 -9.796875 C 17.421875 -9.867188 17.363281 -9.953125 17.28125 -10.046875 C 17.15625 -10.160156 16.90625 -10.320312 16.53125 -10.53125 C 16.15625 -10.738281 15.578125 -10.921875 14.796875 -11.078125 C 14.023438 -11.234375 12.984375 -11.3125 11.671875 -11.3125 C 10.078125 -11.3125 8.785156 -11.273438 7.796875 -11.203125 C 6.804688 -11.128906 6.03125 -11.03125 5.46875 -10.90625 C 4.914062 -10.78125 4.515625 -10.644531 4.265625 -10.5 C 4.023438 -10.351562 3.878906 -10.207031 3.828125 -10.0625 C 3.785156 -9.925781 3.765625 -9.8125 3.765625 -9.71875 C 3.765625 -9.539062 3.820312 -9.382812 3.9375 -9.25 C 4.207031 -9 4.613281 -8.804688 5.15625 -8.671875 C 5.695312 -8.535156 6.296875 -8.4375 6.953125 -8.375 C 7.609375 -8.320312 8.253906 -8.289062 8.890625 -8.28125 C 9.535156 -8.28125 10.085938 -8.28125 10.546875 -8.28125 C 10.796875 -8.289062 11.03125 -8.296875 11.25 -8.296875 C 11.46875 -8.296875 11.660156 -8.289062 11.828125 -8.28125 C 11.960938 -8.28125 12.097656 -8.28125 12.234375 -8.28125 C 12.378906 -8.28125 12.523438 -8.28125 12.671875 -8.28125 Z M 12.671875 -8.28125 "/></g></g></g><g fill="#98d86f" fill-opacity="1"><g transform="translate(149.508648, 124.126622)"><g><path d="M 12.15625 -13.921875 C 13.6875 -13.921875 15.113281 -13.738281 16.4375 -13.375 C 17.769531 -13.019531 18.9375 -12.523438 19.9375 -11.890625 C 20.9375 -11.265625 21.710938 -10.53125 22.265625 -9.6875 C 22.828125 -8.851562 23.109375 -7.945312 23.109375 -6.96875 C 23.109375 -5.976562 22.828125 -5.0625 22.265625 -4.21875 C 21.710938 -3.382812 20.9375 -2.648438 19.9375 -2.015625 C 18.9375 -1.390625 17.769531 -0.894531 16.4375 -0.53125 C 15.113281 -0.175781 13.6875 0 12.15625 0 C 10.613281 0 9.179688 -0.175781 7.859375 -0.53125 C 6.535156 -0.894531 5.367188 -1.390625 4.359375 -2.015625 C 3.359375 -2.648438 2.578125 -3.382812 2.015625 -4.21875 C 1.460938 -5.0625 1.1875 -5.976562 1.1875 -6.96875 C 1.1875 -7.945312 1.460938 -8.851562 2.015625 -9.6875 C 2.578125 -10.53125 3.359375 -11.265625 4.359375 -11.890625 C 5.367188 -12.523438 6.535156 -13.019531 7.859375 -13.375 C 9.179688 -13.738281 10.613281 -13.921875 12.15625 -13.921875 Z M 12.15625 -2.390625 C 13.144531 -2.390625 14.132812 -2.503906 15.125 -2.734375 C 16.113281 -2.960938 17.019531 -3.285156 17.84375 -3.703125 C 18.664062 -4.128906 19.320312 -4.613281 19.8125 -5.15625 C 20.300781 -5.707031 20.546875 -6.3125 20.546875 -6.96875 C 20.546875 -7.613281 20.300781 -8.210938 19.8125 -8.765625 C 19.320312 -9.316406 18.664062 -9.800781 17.84375 -10.21875 C 17.019531 -10.632812 16.113281 -10.957031 15.125 -11.1875 C 14.132812 -11.414062 13.144531 -11.53125 12.15625 -11.53125 C 11.15625 -11.53125 10.160156 -11.414062 9.171875 -11.1875 C 8.191406 -10.957031 7.289062 -10.632812 6.46875 -10.21875 C 5.644531 -9.800781 4.988281 -9.316406 4.5 -8.765625 C 4.007812 -8.210938 3.765625 -7.613281 3.765625 -6.96875 C 3.765625 -6.3125 4.007812 -5.707031 4.5 -5.15625 C 4.988281 -4.613281 5.644531 -4.128906 6.46875 -3.703125 C 7.289062 -3.285156 8.191406 -2.960938 9.171875 -2.734375 C 10.160156 -2.503906 11.15625 -2.390625 12.15625 -2.390625 Z M 12.15625 -2.390625 "/></g></g></g><g fill="#98d86f" fill-opacity="1"><g transform="translate(186.43059, 124.126622)"><g><path d="M 3.765625 -13.921875 L 3.765625 -2.5625 L 18.515625 -2.5625 L 18.515625 0 L 1.1875 0 L 1.1875 -13.921875 Z M 3.765625 -13.921875 "/></g></g></g><g fill="#98d86f" fill-opacity="1"><g transform="translate(218.757442, 124.126622)"><g><path d="M 19.96875 -13.921875 L 19.96875 -8.3125 C 19.976562 -7.976562 19.96875 -7.566406 19.9375 -7.078125 C 19.914062 -6.597656 19.847656 -6.078125 19.734375 -5.515625 C 19.628906 -4.960938 19.4375 -4.398438 19.15625 -3.828125 C 18.875 -3.265625 18.488281 -2.734375 18 -2.234375 C 16.53125 -0.742188 14.328125 0 11.390625 0 L 9.765625 0 C 6.847656 0 4.65625 -0.742188 3.1875 -2.234375 C 2.675781 -2.734375 2.285156 -3.265625 2.015625 -3.828125 C 1.742188 -4.398438 1.546875 -4.960938 1.421875 -5.515625 C 1.304688 -6.078125 1.238281 -6.597656 1.21875 -7.078125 C 1.195312 -7.566406 1.1875 -7.976562 1.1875 -8.3125 L 1.1875 -13.921875 L 3.765625 -13.921875 L 3.765625 -8.3125 C 3.765625 -7.925781 3.78125 -7.476562 3.8125 -6.96875 C 3.84375 -6.46875 3.941406 -5.957031 4.109375 -5.4375 C 4.285156 -4.925781 4.582031 -4.457031 5 -4.03125 C 5.957031 -3.050781 7.546875 -2.5625 9.765625 -2.5625 L 11.390625 -2.5625 C 13.609375 -2.5625 15.203125 -3.050781 16.171875 -4.03125 C 16.597656 -4.457031 16.894531 -4.925781 17.0625 -5.4375 C 17.238281 -5.957031 17.34375 -6.46875 17.375 -6.96875 C 17.40625 -7.476562 17.421875 -7.925781 17.421875 -8.3125 L 17.421875 -13.921875 Z M 19.96875 -13.921875 "/></g></g></g><g fill="#98d86f" fill-opacity="1"><g transform="translate(252.556304, 124.126622)"><g><path d="M 1.1875 -11.359375 L 1.1875 -13.921875 L 21.28125 -13.921875 L 21.28125 -11.359375 L 12.53125 -11.359375 L 12.53125 0 L 9.96875 0 L 9.96875 -11.359375 Z M 1.1875 -11.359375 "/></g></g></g><g fill="#98d86f" fill-opacity="1"><g transform="translate(287.648156, 124.126622)"><g><path d="M 3.765625 0 L 1.1875 0 L 1.1875 -13.921875 L 3.765625 -13.921875 Z M 3.765625 0 "/></g></g></g><g fill="#98d86f" fill-opacity="1"><g transform="translate(305.215023, 124.126622)"><g><path d="M 12.15625 -13.921875 C 13.6875 -13.921875 15.113281 -13.738281 16.4375 -13.375 C 17.769531 -13.019531 18.9375 -12.523438 19.9375 -11.890625 C 20.9375 -11.265625 21.710938 -10.53125 22.265625 -9.6875 C 22.828125 -8.851562 23.109375 -7.945312 23.109375 -6.96875 C 23.109375 -5.976562 22.828125 -5.0625 22.265625 -4.21875 C 21.710938 -3.382812 20.9375 -2.648438 19.9375 -2.015625 C 18.9375 -1.390625 17.769531 -0.894531 16.4375 -0.53125 C 15.113281 -0.175781 13.6875 0 12.15625 0 C 10.613281 0 9.179688 -0.175781 7.859375 -0.53125 C 6.535156 -0.894531 5.367188 -1.390625 4.359375 -2.015625 C 3.359375 -2.648438 2.578125 -3.382812 2.015625 -4.21875 C 1.460938 -5.0625 1.1875 -5.976562 1.1875 -6.96875 C 1.1875 -7.945312 1.460938 -8.851562 2.015625 -9.6875 C 2.578125 -10.53125 3.359375 -11.265625 4.359375 -11.890625 C 5.367188 -12.523438 6.535156 -13.019531 7.859375 -13.375 C 9.179688 -13.738281 10.613281 -13.921875 12.15625 -13.921875 Z M 12.15625 -2.390625 C 13.144531 -2.390625 14.132812 -2.503906 15.125 -2.734375 C 16.113281 -2.960938 17.019531 -3.285156 17.84375 -3.703125 C 18.664062 -4.128906 19.320312 -4.613281 19.8125 -5.15625 C 20.300781 -5.707031 20.546875 -6.3125 20.546875 -6.96875 C 20.546875 -7.613281 20.300781 -8.210938 19.8125 -8.765625 C 19.320312 -9.316406 18.664062 -9.800781 17.84375 -10.21875 C 17.019531 -10.632812 16.113281 -10.957031 15.125 -11.1875 C 14.132812 -11.414062 13.144531 -11.53125 12.15625 -11.53125 C 11.15625 -11.53125 10.160156 -11.414062 9.171875 -11.1875 C 8.191406 -10.957031 7.289062 -10.632812 6.46875 -10.21875 C 5.644531 -9.800781 4.988281 -9.316406 4.5 -8.765625 C 4.007812 -8.210938 3.765625 -7.613281 3.765625 -6.96875 C 3.765625 -6.3125 4.007812 -5.707031 4.5 -5.15625 C 4.988281 -4.613281 5.644531 -4.128906 6.46875 -3.703125 C 7.289062 -3.285156 8.191406 -2.960938 9.171875 -2.734375 C 10.160156 -2.503906 11.15625 -2.390625 12.15625 -2.390625 Z M 12.15625 -2.390625 "/></g></g></g><g fill="#98d86f" fill-opacity="1"><g transform="translate(342.136962, 124.126622)"><g><path d="M 18.359375 -3.125 L 18.359375 -13.921875 L 20.921875 -13.921875 L 20.921875 0 L 18.1875 0 L 3.765625 -11.4375 L 3.765625 0 L 1.1875 0 L 1.1875 -13.921875 L 4.734375 -13.921875 Z M 18.359375 -3.125 "/></g></g></g><g fill="#98d86f" fill-opacity="1"><g transform="translate(376.890647, 124.126622)"><g><path d="M 12.671875 -8.28125 C 13.203125 -8.28125 13.796875 -8.257812 14.453125 -8.21875 C 15.117188 -8.1875 15.789062 -8.109375 16.46875 -7.984375 C 17.144531 -7.859375 17.765625 -7.648438 18.328125 -7.359375 C 18.898438 -7.066406 19.359375 -6.660156 19.703125 -6.140625 C 20.054688 -5.628906 20.234375 -4.96875 20.234375 -4.15625 C 20.234375 -3.46875 20.085938 -2.882812 19.796875 -2.40625 C 19.503906 -1.925781 19.109375 -1.535156 18.609375 -1.234375 C 18.109375 -0.929688 17.554688 -0.691406 16.953125 -0.515625 C 16.347656 -0.347656 15.726562 -0.226562 15.09375 -0.15625 C 14.457031 -0.0820312 13.847656 -0.0351562 13.265625 -0.015625 C 12.691406 -0.00390625 12.195312 0 11.78125 0 C 10.550781 0 9.484375 -0.03125 8.578125 -0.09375 C 7.679688 -0.164062 6.894531 -0.269531 6.21875 -0.40625 C 5.550781 -0.539062 4.941406 -0.726562 4.390625 -0.96875 C 3.492188 -1.34375 2.78125 -1.78125 2.25 -2.28125 C 1.71875 -2.789062 1.40625 -3.515625 1.3125 -4.453125 L 3.90625 -4.453125 C 3.9375 -4.265625 4.050781 -4.085938 4.25 -3.921875 C 4.457031 -3.765625 4.84375 -3.566406 5.40625 -3.328125 C 6.039062 -3.046875 6.851562 -2.84375 7.84375 -2.71875 C 8.84375 -2.601562 10.15625 -2.546875 11.78125 -2.546875 C 13 -2.546875 13.988281 -2.59375 14.75 -2.6875 C 15.519531 -2.789062 16.117188 -2.921875 16.546875 -3.078125 C 16.972656 -3.242188 17.265625 -3.414062 17.421875 -3.59375 C 17.578125 -3.78125 17.65625 -3.96875 17.65625 -4.15625 C 17.65625 -4.789062 17.21875 -5.203125 16.34375 -5.390625 C 15.46875 -5.585938 14.238281 -5.691406 12.65625 -5.703125 C 12.488281 -5.703125 12.332031 -5.703125 12.1875 -5.703125 C 12.039062 -5.703125 11.90625 -5.710938 11.78125 -5.734375 C 11.601562 -5.734375 11.410156 -5.734375 11.203125 -5.734375 C 11.003906 -5.734375 10.789062 -5.734375 10.5625 -5.734375 C 9.394531 -5.710938 8.273438 -5.734375 7.203125 -5.796875 C 6.128906 -5.859375 5.15625 -6.007812 4.28125 -6.25 C 3.40625 -6.5 2.691406 -6.894531 2.140625 -7.4375 C 1.503906 -8.0625 1.1875 -8.820312 1.1875 -9.71875 C 1.1875 -10.675781 1.460938 -11.4375 2.015625 -12 C 2.566406 -12.5625 3.320312 -12.972656 4.28125 -13.234375 C 5.25 -13.503906 6.363281 -13.679688 7.625 -13.765625 C 8.894531 -13.847656 10.242188 -13.890625 11.671875 -13.890625 C 15.503906 -13.890625 18.054688 -13.125 19.328125 -11.59375 C 19.640625 -11.226562 19.84375 -10.867188 19.9375 -10.515625 C 20.039062 -10.160156 20.097656 -9.863281 20.109375 -9.625 L 17.53125 -9.625 C 17.507812 -9.664062 17.484375 -9.722656 17.453125 -9.796875 C 17.421875 -9.867188 17.363281 -9.953125 17.28125 -10.046875 C 17.15625 -10.160156 16.90625 -10.320312 16.53125 -10.53125 C 16.15625 -10.738281 15.578125 -10.921875 14.796875 -11.078125 C 14.023438 -11.234375 12.984375 -11.3125 11.671875 -11.3125 C 10.078125 -11.3125 8.785156 -11.273438 7.796875 -11.203125 C 6.804688 -11.128906 6.03125 -11.03125 5.46875 -10.90625 C 4.914062 -10.78125 4.515625 -10.644531 4.265625 -10.5 C 4.023438 -10.351562 3.878906 -10.207031 3.828125 -10.0625 C 3.785156 -9.925781 3.765625 -9.8125 3.765625 -9.71875 C 3.765625 -9.539062 3.820312 -9.382812 3.9375 -9.25 C 4.207031 -9 4.613281 -8.804688 5.15625 -8.671875 C 5.695312 -8.535156 6.296875 -8.4375 6.953125 -8.375 C 7.609375 -8.320312 8.253906 -8.289062 8.890625 -8.28125 C 9.535156 -8.28125 10.085938 -8.28125 10.546875 -8.28125 C 10.796875 -8.289062 11.03125 -8.296875 11.25 -8.296875 C 11.46875 -8.296875 11.660156 -8.289062 11.828125 -8.28125 C 11.960938 -8.28125 12.097656 -8.28125 12.234375 -8.28125 C 12.378906 -8.28125 12.523438 -8.28125 12.671875 -8.28125 Z M 12.671875 -8.28125 "/></g></g></g><g fill="#98d86f" fill-opacity="1"><g transform="translate(410.948116, 124.126622)"><g/></g></g><g fill="#98d86f" fill-opacity="1"><g transform="translate(429.151531, 124.126622)"><g><path d="M 3.765625 -13.921875 L 3.765625 -2.5625 L 18.515625 -2.5625 L 18.515625 0 L 1.1875 0 L 1.1875 -13.921875 Z M 3.765625 -13.921875 "/></g></g></g><g fill="#98d86f" fill-opacity="1"><g transform="translate(461.478378, 124.126622)"><g><path d="M 3.765625 -13.921875 L 3.765625 -2.5625 L 18.515625 -2.5625 L 18.515625 0 L 1.1875 0 L 1.1875 -13.921875 Z M 3.765625 -13.921875 "/></g></g></g><g fill="#98d86f" fill-opacity="1"><g transform="translate(493.805225, 124.126622)"><g><path d="M 12.46875 -2.5625 C 13.851562 -2.5625 15.15625 -2.722656 16.375 -3.046875 C 17.601562 -3.378906 18.644531 -3.835938 19.5 -4.421875 L 20.9375 -2.328125 C 19.882812 -1.585938 18.617188 -1.015625 17.140625 -0.609375 C 15.660156 -0.203125 14.101562 0 12.46875 0 C 10.894531 0 9.421875 -0.175781 8.046875 -0.53125 C 6.679688 -0.894531 5.484375 -1.390625 4.453125 -2.015625 C 3.429688 -2.648438 2.628906 -3.382812 2.046875 -4.21875 C 1.472656 -5.0625 1.1875 -5.976562 1.1875 -6.96875 C 1.1875 -7.945312 1.472656 -8.851562 2.046875 -9.6875 C 2.628906 -10.53125 3.429688 -11.265625 4.453125 -11.890625 C 5.484375 -12.523438 6.679688 -13.019531 8.046875 -13.375 C 9.421875 -13.738281 10.894531 -13.921875 12.46875 -13.921875 C 14.101562 -13.921875 15.660156 -13.71875 17.140625 -13.3125 C 18.617188 -12.90625 19.882812 -12.335938 20.9375 -11.609375 L 19.46875 -9.5 C 18.625 -10.101562 17.59375 -10.5625 16.375 -10.875 C 15.15625 -11.195312 13.851562 -11.359375 12.46875 -11.359375 C 11.4375 -11.359375 10.40625 -11.25 9.375 -11.03125 C 8.351562 -10.820312 7.414062 -10.519531 6.5625 -10.125 C 5.71875 -9.738281 5.039062 -9.273438 4.53125 -8.734375 C 4.019531 -8.203125 3.765625 -7.613281 3.765625 -6.96875 C 3.765625 -6.3125 4.019531 -5.710938 4.53125 -5.171875 C 5.039062 -4.640625 5.71875 -4.175781 6.5625 -3.78125 C 7.414062 -3.394531 8.351562 -3.09375 9.375 -2.875 C 10.40625 -2.664062 11.4375 -2.5625 12.46875 -2.5625 Z M 12.46875 -2.5625 "/></g></g></g><g clip-path="url(#31d0d78f15)"><path fill="#ffffff" d="M 167.808594 33.835938 L 63.441406 33.835938 C 62.007812 33.835938 60.867188 34.996094 60.867188 36.414062 L 60.867188 40.636719 L 51.046875 40.636719 C 50.359375 40.636719 49.808594 41.1875 49.808594 41.875 L 49.808594 42.300781 L 6.382812 42.300781 C 3.375 42.300781 1.59375 45.898438 3.253906 48.582031 C 8.058594 56.328125 14.492188 62.519531 21.90625 66.773438 C 26.449219 69.398438 31.359375 71.273438 36.484375 72.339844 C 39.699219 73.011719 42.992188 73.363281 46.332031 73.363281 C 47.507812 73.363281 48.683594 73.453125 49.808594 73.636719 L 49.808594 74.460938 C 49.808594 75.148438 50.359375 75.695312 51.046875 75.695312 L 60.484375 75.695312 C 68.03125 75.695312 74.652344 80.863281 76.390625 88.214844 C 76.40625 88.261719 76.421875 88.320312 76.421875 88.367188 C 77.457031 92.851562 77.992188 97.335938 78.050781 101.816406 L 73.1875 101.816406 C 71.144531 101.816406 69.222656 102.199219 68.09375 102.824219 L 43.285156 116.5625 L 43.285156 124.597656 L 156.890625 124.597656 L 156.890625 116.5625 L 132.078125 102.824219 C 130.9375 102.199219 129.03125 101.816406 126.984375 101.816406 L 122.136719 101.816406 C 122.578125 83.945312 135.054688 68.527344 152.484375 64.152344 L 158.964844 62.519531 C 165.65625 60.84375 170.355469 54.820312 170.355469 47.925781 L 170.355469 36.414062 C 170.355469 34.980469 169.210938 33.835938 167.808594 33.835938 Z M 167.808594 33.835938 " fill-opacity="1" fill-rule="nonzero"/></g><path stroke-linecap="butt" transform="matrix(0.00000000130245, 0.74625, -0.74625, 0.00000000130245, 112.282427, 34.142133)" fill="none" stroke-linejoin="miter" d="M -0.00202018 1.498645 L 121.229145 1.498646 " stroke="#ffffff" stroke-width="3" stroke-opacity="1" stroke-miterlimit="4"/></svg>