<svg xmlns="http://www.w3.org/2000/svg" xmlns:xlink="http://www.w3.org/1999/xlink" width="421" zoomAndPan="magnify" viewBox="0 0 315.75 152.249993" height="203" preserveAspectRatio="xMidYMid meet" version="1.0"><defs><g/><clipPath id="502f60d7ab"><path d="M 1 23.863281 L 119.316406 23.863281 L 119.316406 127.601562 L 1 127.601562 Z M 1 23.863281 " clip-rule="nonzero"/></clipPath></defs><g fill="#98d86f" fill-opacity="1"><g transform="translate(129.51455, 67.140443)"><g><path d="M 24.3125 -35.5625 L 11.75 -35.5625 L 11.75 -28.15625 L 20.578125 -28.15625 L 20.578125 -20.140625 L 11.75 -20.140625 L 11.75 0 L 3.734375 0 L 3.734375 -43.578125 L 24.3125 -43.578125 Z M 24.3125 -35.5625 "/></g></g></g><g fill="#98d86f" fill-opacity="1"><g transform="translate(157.92488, 67.140443)"><g><path d="M 24.3125 -35.5 L 11.75 -35.5 L 11.75 -27.796875 L 20.578125 -27.796875 L 20.578125 -19.765625 L 11.75 -19.765625 L 11.75 -8.015625 L 24.3125 -8.015625 L 24.3125 0 L 3.734375 0 L 3.734375 -43.578125 L 24.3125 -43.578125 Z M 24.3125 -35.5 "/></g></g></g><g fill="#98d86f" fill-opacity="1"><g transform="translate(186.335209, 67.140443)"><g><path d="M 27.171875 -29.96875 C 27.171875 -28.0625 27.023438 -26.195312 26.734375 -24.375 C 26.441406 -22.550781 25.847656 -20.910156 24.953125 -19.453125 C 24.066406 -18.003906 22.753906 -16.890625 21.015625 -16.109375 L 27.109375 0 L 18.53125 0 L 12.875 -15.046875 L 11.75 -15.046875 L 11.75 0 L 3.734375 0 L 3.734375 -43.578125 L 15.734375 -43.578125 C 23.359375 -43.578125 27.171875 -39.039062 27.171875 -29.96875 Z M 15.046875 -22.75 C 15.585938 -22.75 16.175781 -22.976562 16.8125 -23.4375 C 17.457031 -23.894531 18.007812 -24.617188 18.46875 -25.609375 C 18.925781 -26.609375 19.15625 -27.957031 19.15625 -29.65625 C 19.15625 -31.9375 18.675781 -33.53125 17.71875 -34.4375 C 16.757812 -35.351562 15.765625 -35.8125 14.734375 -35.8125 L 11.75 -35.8125 L 11.75 -22.75 Z M 15.046875 -22.75 "/></g></g></g><g fill="#98d86f" fill-opacity="1"><g transform="translate(217.605213, 67.140443)"><g><path d="M 22.203125 0 L 20.328125 -8.640625 L 13.671875 -8.640625 L 11.9375 0 L 3.734375 0 L 12.5625 -43.578125 L 21.078125 -43.578125 L 30.40625 0 Z M 15.296875 -16.65625 L 18.65625 -16.65625 L 16.90625 -24.6875 Z M 15.296875 -16.65625 "/></g></g></g><g fill="#98d86f" fill-opacity="1"><g transform="translate(252.107903, 67.140443)"><g><path d="M 11.75 -8.015625 L 22.75 -8.015625 L 22.75 0 L 3.734375 0 L 3.734375 -43.578125 L 11.75 -43.578125 Z M 11.75 -8.015625 "/></g></g></g><g fill="#98d86f" fill-opacity="1"><g transform="translate(129.51455, 115.450079)"><g><path d="M 24.296875 -35.546875 L 11.75 -35.546875 L 11.75 -28.15625 L 20.578125 -28.15625 L 20.578125 -20.140625 L 11.75 -20.140625 L 11.75 0 L 3.734375 0 L 3.734375 -43.578125 L 24.296875 -43.578125 Z M 24.296875 -35.546875 "/></g></g></g><g fill="#98d86f" fill-opacity="1"><g transform="translate(157.546355, 115.450079)"><g><path d="M 14.484375 -43.578125 C 16.972656 -43.578125 19.195312 -42.625 21.15625 -40.71875 C 23.125 -38.8125 24.675781 -36.207031 25.8125 -32.90625 C 26.957031 -29.613281 27.53125 -25.894531 27.53125 -21.75 C 27.53125 -17.601562 26.957031 -13.894531 25.8125 -10.625 C 24.675781 -7.351562 23.125 -4.765625 21.15625 -2.859375 C 19.195312 -0.953125 16.972656 0 14.484375 0 C 11.992188 0 9.765625 -0.953125 7.796875 -2.859375 C 5.828125 -4.765625 4.269531 -7.351562 3.125 -10.625 C 1.988281 -13.894531 1.421875 -17.601562 1.421875 -21.75 C 1.421875 -25.894531 1.988281 -29.613281 3.125 -32.90625 C 4.269531 -36.207031 5.828125 -38.8125 7.796875 -40.71875 C 9.765625 -42.625 11.992188 -43.578125 14.484375 -43.578125 Z M 14.484375 -8.015625 C 14.984375 -8.015625 15.625 -8.539062 16.40625 -9.59375 C 17.195312 -10.65625 17.910156 -12.210938 18.546875 -14.265625 C 19.191406 -16.316406 19.515625 -18.8125 19.515625 -21.75 C 19.515625 -24.738281 19.191406 -27.257812 18.546875 -29.3125 C 17.910156 -31.363281 17.195312 -32.914062 16.40625 -33.96875 C 15.625 -35.019531 14.984375 -35.546875 14.484375 -35.546875 C 13.984375 -35.546875 13.335938 -35.019531 12.546875 -33.96875 C 11.765625 -32.914062 11.050781 -31.363281 10.40625 -29.3125 C 9.769531 -27.257812 9.453125 -24.738281 9.453125 -21.75 C 9.453125 -18.8125 9.769531 -16.316406 10.40625 -14.265625 C 11.050781 -12.210938 11.765625 -10.65625 12.546875 -9.59375 C 13.335938 -8.539062 13.984375 -8.015625 14.484375 -8.015625 Z M 14.484375 -8.015625 "/></g></g></g><g fill="#98d86f" fill-opacity="1"><g transform="translate(186.510484, 115.450079)"><g><path d="M 27.15625 -29.953125 C 27.15625 -28.046875 27.007812 -26.179688 26.71875 -24.359375 C 26.4375 -22.535156 25.847656 -20.898438 24.953125 -19.453125 C 24.066406 -18.003906 22.753906 -16.882812 21.015625 -16.09375 L 27.09375 0 L 18.515625 0 L 12.859375 -15.046875 L 11.75 -15.046875 L 11.75 0 L 3.734375 0 L 3.734375 -43.578125 L 15.71875 -43.578125 C 23.34375 -43.578125 27.15625 -39.035156 27.15625 -29.953125 Z M 15.046875 -22.75 C 15.578125 -22.75 16.164062 -22.972656 16.8125 -23.421875 C 17.457031 -23.878906 18.003906 -24.601562 18.453125 -25.59375 C 18.910156 -26.59375 19.140625 -27.945312 19.140625 -29.65625 C 19.140625 -31.925781 18.660156 -33.515625 17.703125 -34.421875 C 16.753906 -35.335938 15.765625 -35.796875 14.734375 -35.796875 L 11.75 -35.796875 L 11.75 -22.75 Z M 15.046875 -22.75 "/></g></g></g><g fill="#98d86f" fill-opacity="1"><g transform="translate(217.401404, 115.450079)"><g><path d="M 17.96875 -18.09375 L 17.96875 -26.109375 L 29.40625 -26.109375 L 29.40625 -22.125 C 29.40625 -17.070312 28.695312 -12.703125 27.28125 -9.015625 C 25.875 -5.328125 23.90625 -2.738281 21.375 -1.25 C 20.007812 -0.414062 18.5625 0 17.03125 0 C 15.457031 0 13.945312 -0.414062 12.5 -1.25 C 10.71875 -2.238281 9.171875 -3.75 7.859375 -5.78125 C 6.554688 -7.8125 5.539062 -10.191406 4.8125 -12.921875 C 4.09375 -15.660156 3.734375 -18.601562 3.734375 -21.75 C 3.734375 -25.894531 4.3125 -29.601562 5.46875 -32.875 C 6.625 -36.15625 8.207031 -38.75 10.21875 -40.65625 C 12.226562 -42.5625 14.519531 -43.515625 17.09375 -43.515625 C 19.332031 -43.515625 21.40625 -42.734375 23.3125 -41.171875 C 25.21875 -39.617188 26.769531 -37.414062 27.96875 -34.5625 L 20.640625 -31.453125 C 20.015625 -32.816406 19.367188 -33.828125 18.703125 -34.484375 C 18.046875 -35.148438 17.507812 -35.484375 17.09375 -35.484375 C 16.46875 -35.484375 15.726562 -34.9375 14.875 -33.84375 C 14.03125 -32.75 13.296875 -31.175781 12.671875 -29.125 C 12.054688 -27.070312 11.75 -24.613281 11.75 -21.75 C 11.75 -19.101562 12.015625 -16.828125 12.546875 -14.921875 C 13.085938 -13.015625 13.71875 -11.5 14.4375 -10.375 C 15.164062 -9.257812 15.84375 -8.535156 16.46875 -8.203125 C 16.675781 -8.078125 16.894531 -7.992188 17.125 -7.953125 C 17.351562 -7.910156 17.59375 -7.992188 17.84375 -8.203125 C 18.625 -8.742188 19.382812 -9.851562 20.125 -11.53125 C 20.875 -13.207031 21.394531 -15.394531 21.6875 -18.09375 Z M 17.96875 -18.09375 "/></g></g></g><g fill="#98d86f" fill-opacity="1"><g transform="translate(250.529894, 115.450079)"><g><path d="M 24.296875 -35.484375 L 11.75 -35.484375 L 11.75 -27.78125 L 20.578125 -27.78125 L 20.578125 -19.765625 L 11.75 -19.765625 L 11.75 -8.015625 L 24.296875 -8.015625 L 24.296875 0 L 3.734375 0 L 3.734375 -43.578125 L 24.296875 -43.578125 Z M 24.296875 -35.484375 "/></g></g></g><g clip-path="url(#502f60d7ab)"><path fill="#ffffff" d="M 190.941406 23.863281 L 71.496094 23.863281 C 69.855469 23.863281 68.546875 25.1875 68.546875 26.8125 L 68.546875 31.644531 L 57.304688 31.644531 C 56.519531 31.644531 55.890625 32.273438 55.890625 33.058594 L 55.890625 33.546875 L 6.1875 33.546875 C 2.746094 33.546875 0.707031 37.667969 2.609375 40.738281 C 8.105469 49.605469 15.472656 56.691406 23.953125 61.558594 C 29.152344 64.5625 34.773438 66.707031 40.636719 67.929688 C 44.320312 68.699219 48.089844 69.101562 51.914062 69.101562 C 53.257812 69.101562 54.601562 69.203125 55.890625 69.414062 L 55.890625 70.355469 C 55.890625 71.140625 56.519531 71.769531 57.304688 71.769531 L 68.109375 71.769531 C 76.746094 71.769531 84.320312 77.6875 86.3125 86.097656 C 86.328125 86.152344 86.347656 86.222656 86.347656 86.273438 C 87.535156 91.40625 88.144531 96.535156 88.214844 101.667969 L 82.648438 101.667969 C 80.308594 101.667969 78.109375 102.101562 76.816406 102.820312 L 48.421875 118.542969 L 48.421875 127.742188 L 178.445312 127.742188 L 178.445312 118.542969 L 150.050781 102.820312 C 148.742188 102.101562 146.558594 101.667969 144.21875 101.667969 L 138.671875 101.667969 C 139.175781 81.210938 153.453125 63.566406 173.402344 58.558594 L 180.820312 56.691406 C 188.480469 54.769531 193.855469 47.878906 193.855469 39.988281 L 193.855469 26.8125 C 193.855469 25.171875 192.546875 23.863281 190.941406 23.863281 Z M 190.941406 23.863281 " fill-opacity="1" fill-rule="nonzero"/></g><g fill="#98d86f" fill-opacity="1"><g transform="translate(132.499844, 126.995594)"><g><path d="M 6.328125 -4.140625 C 6.597656 -4.140625 6.894531 -4.128906 7.21875 -4.109375 C 7.550781 -4.085938 7.882812 -4.046875 8.21875 -3.984375 C 8.5625 -3.921875 8.875 -3.816406 9.15625 -3.671875 C 9.445312 -3.523438 9.675781 -3.320312 9.84375 -3.0625 C 10.019531 -2.8125 10.109375 -2.484375 10.109375 -2.078125 C 10.109375 -1.734375 10.035156 -1.441406 9.890625 -1.203125 C 9.742188 -0.960938 9.546875 -0.765625 9.296875 -0.609375 C 9.046875 -0.460938 8.769531 -0.34375 8.46875 -0.25 C 8.164062 -0.164062 7.851562 -0.101562 7.53125 -0.0625 C 7.21875 -0.03125 6.914062 -0.0078125 6.625 0 C 6.34375 0 6.097656 0 5.890625 0 C 5.273438 0 4.742188 -0.015625 4.296875 -0.046875 C 3.847656 -0.078125 3.453125 -0.128906 3.109375 -0.203125 C 2.773438 -0.273438 2.472656 -0.367188 2.203125 -0.484375 C 1.742188 -0.671875 1.378906 -0.890625 1.109375 -1.140625 C 0.847656 -1.390625 0.695312 -1.75 0.65625 -2.21875 L 1.953125 -2.21875 C 1.972656 -2.132812 2.03125 -2.050781 2.125 -1.96875 C 2.226562 -1.882812 2.421875 -1.78125 2.703125 -1.65625 C 3.023438 -1.519531 3.429688 -1.421875 3.921875 -1.359375 C 4.421875 -1.296875 5.078125 -1.265625 5.890625 -1.265625 C 6.492188 -1.265625 6.988281 -1.289062 7.375 -1.34375 C 7.757812 -1.394531 8.054688 -1.457031 8.265625 -1.53125 C 8.484375 -1.613281 8.628906 -1.703125 8.703125 -1.796875 C 8.785156 -1.890625 8.828125 -1.984375 8.828125 -2.078125 C 8.828125 -2.390625 8.609375 -2.59375 8.171875 -2.6875 C 7.734375 -2.789062 7.113281 -2.847656 6.3125 -2.859375 C 6.238281 -2.859375 6.164062 -2.859375 6.09375 -2.859375 C 6.019531 -2.859375 5.953125 -2.859375 5.890625 -2.859375 C 5.796875 -2.859375 5.695312 -2.859375 5.59375 -2.859375 C 5.5 -2.859375 5.394531 -2.859375 5.28125 -2.859375 C 4.695312 -2.859375 4.132812 -2.867188 3.59375 -2.890625 C 3.0625 -2.921875 2.578125 -3 2.140625 -3.125 C 1.703125 -3.25 1.347656 -3.445312 1.078125 -3.71875 C 0.753906 -4.03125 0.59375 -4.410156 0.59375 -4.859375 C 0.59375 -5.335938 0.726562 -5.71875 1 -6 C 1.28125 -6.28125 1.660156 -6.484375 2.140625 -6.609375 C 2.617188 -6.742188 3.175781 -6.832031 3.8125 -6.875 C 4.445312 -6.914062 5.117188 -6.9375 5.828125 -6.9375 C 7.742188 -6.9375 9.019531 -6.554688 9.65625 -5.796875 C 9.8125 -5.609375 9.910156 -5.425781 9.953125 -5.25 C 10.003906 -5.070312 10.035156 -4.925781 10.046875 -4.8125 L 8.75 -4.8125 C 8.75 -4.832031 8.738281 -4.859375 8.71875 -4.890625 C 8.707031 -4.929688 8.679688 -4.972656 8.640625 -5.015625 C 8.566406 -5.078125 8.4375 -5.160156 8.25 -5.265625 C 8.070312 -5.367188 7.785156 -5.457031 7.390625 -5.53125 C 7.003906 -5.613281 6.484375 -5.65625 5.828125 -5.65625 C 5.035156 -5.65625 4.390625 -5.632812 3.890625 -5.59375 C 3.398438 -5.5625 3.015625 -5.515625 2.734375 -5.453125 C 2.453125 -5.390625 2.25 -5.320312 2.125 -5.25 C 2.007812 -5.175781 1.9375 -5.101562 1.90625 -5.03125 C 1.882812 -4.957031 1.875 -4.898438 1.875 -4.859375 C 1.875 -4.765625 1.90625 -4.6875 1.96875 -4.625 C 2.101562 -4.5 2.304688 -4.398438 2.578125 -4.328125 C 2.847656 -4.265625 3.144531 -4.21875 3.46875 -4.1875 C 3.800781 -4.15625 4.125 -4.140625 4.4375 -4.140625 C 4.757812 -4.140625 5.035156 -4.140625 5.265625 -4.140625 C 5.390625 -4.140625 5.503906 -4.140625 5.609375 -4.140625 C 5.722656 -4.140625 5.820312 -4.140625 5.90625 -4.140625 C 5.976562 -4.140625 6.046875 -4.140625 6.109375 -4.140625 C 6.179688 -4.140625 6.253906 -4.140625 6.328125 -4.140625 Z M 6.328125 -4.140625 "/></g></g></g><g fill="#98d86f" fill-opacity="1"><g transform="translate(144.753636, 126.995594)"><g><path d="M 6.078125 -6.953125 C 6.835938 -6.953125 7.550781 -6.863281 8.21875 -6.6875 C 8.882812 -6.507812 9.46875 -6.257812 9.96875 -5.9375 C 10.46875 -5.625 10.851562 -5.257812 11.125 -4.84375 C 11.40625 -4.425781 11.546875 -3.972656 11.546875 -3.484375 C 11.546875 -2.992188 11.40625 -2.535156 11.125 -2.109375 C 10.851562 -1.691406 10.46875 -1.320312 9.96875 -1 C 9.46875 -0.6875 8.882812 -0.441406 8.21875 -0.265625 C 7.550781 -0.0859375 6.835938 0 6.078125 0 C 5.304688 0 4.585938 -0.0859375 3.921875 -0.265625 C 3.265625 -0.441406 2.6875 -0.6875 2.1875 -1 C 1.6875 -1.320312 1.296875 -1.691406 1.015625 -2.109375 C 0.734375 -2.535156 0.59375 -2.992188 0.59375 -3.484375 C 0.59375 -3.972656 0.734375 -4.425781 1.015625 -4.84375 C 1.296875 -5.257812 1.6875 -5.625 2.1875 -5.9375 C 2.6875 -6.257812 3.265625 -6.507812 3.921875 -6.6875 C 4.585938 -6.863281 5.304688 -6.953125 6.078125 -6.953125 Z M 6.078125 -1.1875 C 6.566406 -1.1875 7.054688 -1.242188 7.546875 -1.359375 C 8.046875 -1.484375 8.5 -1.648438 8.90625 -1.859375 C 9.320312 -2.066406 9.648438 -2.304688 9.890625 -2.578125 C 10.140625 -2.847656 10.265625 -3.148438 10.265625 -3.484375 C 10.265625 -3.804688 10.140625 -4.101562 9.890625 -4.375 C 9.648438 -4.65625 9.320312 -4.898438 8.90625 -5.109375 C 8.5 -5.316406 8.046875 -5.476562 7.546875 -5.59375 C 7.054688 -5.707031 6.566406 -5.765625 6.078125 -5.765625 C 5.578125 -5.765625 5.078125 -5.707031 4.578125 -5.59375 C 4.085938 -5.476562 3.632812 -5.316406 3.21875 -5.109375 C 2.8125 -4.898438 2.484375 -4.65625 2.234375 -4.375 C 1.992188 -4.101562 1.875 -3.804688 1.875 -3.484375 C 1.875 -3.148438 1.992188 -2.847656 2.234375 -2.578125 C 2.484375 -2.304688 2.8125 -2.066406 3.21875 -1.859375 C 3.632812 -1.648438 4.085938 -1.484375 4.578125 -1.359375 C 5.078125 -1.242188 5.578125 -1.1875 6.078125 -1.1875 Z M 6.078125 -1.1875 "/></g></g></g><g fill="#98d86f" fill-opacity="1"><g transform="translate(158.438345, 126.995594)"><g><path d="M 1.875 -6.953125 L 1.875 -1.28125 L 9.25 -1.28125 L 9.25 0 L 0.59375 0 L 0.59375 -6.953125 Z M 1.875 -6.953125 "/></g></g></g><g fill="#98d86f" fill-opacity="1"><g transform="translate(169.827617, 126.995594)"><g><path d="M 9.984375 -6.953125 L 9.984375 -4.15625 C 9.984375 -3.988281 9.976562 -3.785156 9.96875 -3.546875 C 9.957031 -3.304688 9.921875 -3.046875 9.859375 -2.765625 C 9.804688 -2.484375 9.707031 -2.195312 9.5625 -1.90625 C 9.425781 -1.625 9.238281 -1.359375 9 -1.109375 C 8.257812 -0.367188 7.15625 0 5.6875 0 L 4.875 0 C 3.414062 0 2.320312 -0.367188 1.59375 -1.109375 C 1.34375 -1.359375 1.148438 -1.625 1.015625 -1.90625 C 0.878906 -2.195312 0.78125 -2.484375 0.71875 -2.765625 C 0.65625 -3.046875 0.617188 -3.304688 0.609375 -3.546875 C 0.597656 -3.785156 0.59375 -3.988281 0.59375 -4.15625 L 0.59375 -6.953125 L 1.875 -6.953125 L 1.875 -4.15625 C 1.875 -3.957031 1.878906 -3.734375 1.890625 -3.484375 C 1.910156 -3.234375 1.960938 -2.976562 2.046875 -2.71875 C 2.140625 -2.457031 2.289062 -2.222656 2.5 -2.015625 C 2.976562 -1.523438 3.769531 -1.28125 4.875 -1.28125 L 5.6875 -1.28125 C 6.800781 -1.28125 7.597656 -1.523438 8.078125 -2.015625 C 8.285156 -2.222656 8.429688 -2.457031 8.515625 -2.71875 C 8.609375 -2.976562 8.660156 -3.234375 8.671875 -3.484375 C 8.691406 -3.734375 8.703125 -3.957031 8.703125 -4.15625 L 8.703125 -6.953125 Z M 9.984375 -6.953125 "/></g></g></g><g fill="#98d86f" fill-opacity="1"><g transform="translate(181.95222, 126.995594)"><g><path d="M 0.59375 -5.671875 L 0.59375 -6.953125 L 10.640625 -6.953125 L 10.640625 -5.671875 L 6.265625 -5.671875 L 6.265625 0 L 4.984375 0 L 4.984375 -5.671875 Z M 0.59375 -5.671875 "/></g></g></g><g fill="#98d86f" fill-opacity="1"><g transform="translate(194.722728, 126.995594)"><g><path d="M 1.875 0 L 0.59375 0 L 0.59375 -6.953125 L 1.875 -6.953125 Z M 1.875 0 "/></g></g></g><g fill="#98d86f" fill-opacity="1"><g transform="translate(198.738763, 126.995594)"><g><path d="M 6.078125 -6.953125 C 6.835938 -6.953125 7.550781 -6.863281 8.21875 -6.6875 C 8.882812 -6.507812 9.46875 -6.257812 9.96875 -5.9375 C 10.46875 -5.625 10.851562 -5.257812 11.125 -4.84375 C 11.40625 -4.425781 11.546875 -3.972656 11.546875 -3.484375 C 11.546875 -2.992188 11.40625 -2.535156 11.125 -2.109375 C 10.851562 -1.691406 10.46875 -1.320312 9.96875 -1 C 9.46875 -0.6875 8.882812 -0.441406 8.21875 -0.265625 C 7.550781 -0.0859375 6.835938 0 6.078125 0 C 5.304688 0 4.585938 -0.0859375 3.921875 -0.265625 C 3.265625 -0.441406 2.6875 -0.6875 2.1875 -1 C 1.6875 -1.320312 1.296875 -1.691406 1.015625 -2.109375 C 0.734375 -2.535156 0.59375 -2.992188 0.59375 -3.484375 C 0.59375 -3.972656 0.734375 -4.425781 1.015625 -4.84375 C 1.296875 -5.257812 1.6875 -5.625 2.1875 -5.9375 C 2.6875 -6.257812 3.265625 -6.507812 3.921875 -6.6875 C 4.585938 -6.863281 5.304688 -6.953125 6.078125 -6.953125 Z M 6.078125 -1.1875 C 6.566406 -1.1875 7.054688 -1.242188 7.546875 -1.359375 C 8.046875 -1.484375 8.5 -1.648438 8.90625 -1.859375 C 9.320312 -2.066406 9.648438 -2.304688 9.890625 -2.578125 C 10.140625 -2.847656 10.265625 -3.148438 10.265625 -3.484375 C 10.265625 -3.804688 10.140625 -4.101562 9.890625 -4.375 C 9.648438 -4.65625 9.320312 -4.898438 8.90625 -5.109375 C 8.5 -5.316406 8.046875 -5.476562 7.546875 -5.59375 C 7.054688 -5.707031 6.566406 -5.765625 6.078125 -5.765625 C 5.578125 -5.765625 5.078125 -5.707031 4.578125 -5.59375 C 4.085938 -5.476562 3.632812 -5.316406 3.21875 -5.109375 C 2.8125 -4.898438 2.484375 -4.65625 2.234375 -4.375 C 1.992188 -4.101562 1.875 -3.804688 1.875 -3.484375 C 1.875 -3.148438 1.992188 -2.847656 2.234375 -2.578125 C 2.484375 -2.304688 2.8125 -2.066406 3.21875 -1.859375 C 3.632812 -1.648438 4.085938 -1.484375 4.578125 -1.359375 C 5.078125 -1.242188 5.578125 -1.1875 6.078125 -1.1875 Z M 6.078125 -1.1875 "/></g></g></g><g fill="#98d86f" fill-opacity="1"><g transform="translate(212.423469, 126.995594)"><g><path d="M 9.171875 -1.5625 L 9.171875 -6.953125 L 10.453125 -6.953125 L 10.453125 0 L 9.078125 0 L 1.875 -5.71875 L 1.875 0 L 0.59375 0 L 0.59375 -6.953125 L 2.359375 -6.953125 Z M 9.171875 -1.5625 "/></g></g></g><g fill="#98d86f" fill-opacity="1"><g transform="translate(225.025052, 126.995594)"><g><path d="M 6.328125 -4.140625 C 6.597656 -4.140625 6.894531 -4.128906 7.21875 -4.109375 C 7.550781 -4.085938 7.882812 -4.046875 8.21875 -3.984375 C 8.5625 -3.921875 8.875 -3.816406 9.15625 -3.671875 C 9.445312 -3.523438 9.675781 -3.320312 9.84375 -3.0625 C 10.019531 -2.8125 10.109375 -2.484375 10.109375 -2.078125 C 10.109375 -1.734375 10.035156 -1.441406 9.890625 -1.203125 C 9.742188 -0.960938 9.546875 -0.765625 9.296875 -0.609375 C 9.046875 -0.460938 8.769531 -0.34375 8.46875 -0.25 C 8.164062 -0.164062 7.851562 -0.101562 7.53125 -0.0625 C 7.21875 -0.03125 6.914062 -0.0078125 6.625 0 C 6.34375 0 6.097656 0 5.890625 0 C 5.273438 0 4.742188 -0.015625 4.296875 -0.046875 C 3.847656 -0.078125 3.453125 -0.128906 3.109375 -0.203125 C 2.773438 -0.273438 2.472656 -0.367188 2.203125 -0.484375 C 1.742188 -0.671875 1.378906 -0.890625 1.109375 -1.140625 C 0.847656 -1.390625 0.695312 -1.75 0.65625 -2.21875 L 1.953125 -2.21875 C 1.972656 -2.132812 2.03125 -2.050781 2.125 -1.96875 C 2.226562 -1.882812 2.421875 -1.78125 2.703125 -1.65625 C 3.023438 -1.519531 3.429688 -1.421875 3.921875 -1.359375 C 4.421875 -1.296875 5.078125 -1.265625 5.890625 -1.265625 C 6.492188 -1.265625 6.988281 -1.289062 7.375 -1.34375 C 7.757812 -1.394531 8.054688 -1.457031 8.265625 -1.53125 C 8.484375 -1.613281 8.628906 -1.703125 8.703125 -1.796875 C 8.785156 -1.890625 8.828125 -1.984375 8.828125 -2.078125 C 8.828125 -2.390625 8.609375 -2.59375 8.171875 -2.6875 C 7.734375 -2.789062 7.113281 -2.847656 6.3125 -2.859375 C 6.238281 -2.859375 6.164062 -2.859375 6.09375 -2.859375 C 6.019531 -2.859375 5.953125 -2.859375 5.890625 -2.859375 C 5.796875 -2.859375 5.695312 -2.859375 5.59375 -2.859375 C 5.5 -2.859375 5.394531 -2.859375 5.28125 -2.859375 C 4.695312 -2.859375 4.132812 -2.867188 3.59375 -2.890625 C 3.0625 -2.921875 2.578125 -3 2.140625 -3.125 C 1.703125 -3.25 1.347656 -3.445312 1.078125 -3.71875 C 0.753906 -4.03125 0.59375 -4.410156 0.59375 -4.859375 C 0.59375 -5.335938 0.726562 -5.71875 1 -6 C 1.28125 -6.28125 1.660156 -6.484375 2.140625 -6.609375 C 2.617188 -6.742188 3.175781 -6.832031 3.8125 -6.875 C 4.445312 -6.914062 5.117188 -6.9375 5.828125 -6.9375 C 7.742188 -6.9375 9.019531 -6.554688 9.65625 -5.796875 C 9.8125 -5.609375 9.910156 -5.425781 9.953125 -5.25 C 10.003906 -5.070312 10.035156 -4.925781 10.046875 -4.8125 L 8.75 -4.8125 C 8.75 -4.832031 8.738281 -4.859375 8.71875 -4.890625 C 8.707031 -4.929688 8.679688 -4.972656 8.640625 -5.015625 C 8.566406 -5.078125 8.4375 -5.160156 8.25 -5.265625 C 8.070312 -5.367188 7.785156 -5.457031 7.390625 -5.53125 C 7.003906 -5.613281 6.484375 -5.65625 5.828125 -5.65625 C 5.035156 -5.65625 4.390625 -5.632812 3.890625 -5.59375 C 3.398438 -5.5625 3.015625 -5.515625 2.734375 -5.453125 C 2.453125 -5.390625 2.25 -5.320312 2.125 -5.25 C 2.007812 -5.175781 1.9375 -5.101562 1.90625 -5.03125 C 1.882812 -4.957031 1.875 -4.898438 1.875 -4.859375 C 1.875 -4.765625 1.90625 -4.6875 1.96875 -4.625 C 2.101562 -4.5 2.304688 -4.398438 2.578125 -4.328125 C 2.847656 -4.265625 3.144531 -4.21875 3.46875 -4.1875 C 3.800781 -4.15625 4.125 -4.140625 4.4375 -4.140625 C 4.757812 -4.140625 5.035156 -4.140625 5.265625 -4.140625 C 5.390625 -4.140625 5.503906 -4.140625 5.609375 -4.140625 C 5.722656 -4.140625 5.820312 -4.140625 5.90625 -4.140625 C 5.976562 -4.140625 6.046875 -4.140625 6.109375 -4.140625 C 6.179688 -4.140625 6.253906 -4.140625 6.328125 -4.140625 Z M 6.328125 -4.140625 "/></g></g></g><g fill="#98d86f" fill-opacity="1"><g transform="translate(237.278842, 126.995594)"><g/></g></g><g fill="#98d86f" fill-opacity="1"><g transform="translate(241.612865, 126.995594)"><g><path d="M 1.875 -6.953125 L 1.875 -1.28125 L 9.25 -1.28125 L 9.25 0 L 0.59375 0 L 0.59375 -6.953125 Z M 1.875 -6.953125 "/></g></g></g><g fill="#98d86f" fill-opacity="1"><g transform="translate(253.002134, 126.995594)"><g><path d="M 1.875 -6.953125 L 1.875 -1.28125 L 9.25 -1.28125 L 9.25 0 L 0.59375 0 L 0.59375 -6.953125 Z M 1.875 -6.953125 "/></g></g></g><g fill="#98d86f" fill-opacity="1"><g transform="translate(264.391403, 126.995594)"><g><path d="M 6.234375 -1.28125 C 6.921875 -1.28125 7.570312 -1.359375 8.1875 -1.515625 C 8.800781 -1.679688 9.316406 -1.910156 9.734375 -2.203125 L 10.46875 -1.15625 C 9.9375 -0.789062 9.300781 -0.503906 8.5625 -0.296875 C 7.820312 -0.0976562 7.046875 0 6.234375 0 C 5.441406 0 4.703125 -0.0859375 4.015625 -0.265625 C 3.335938 -0.441406 2.738281 -0.6875 2.21875 -1 C 1.707031 -1.320312 1.304688 -1.691406 1.015625 -2.109375 C 0.734375 -2.535156 0.59375 -2.992188 0.59375 -3.484375 C 0.59375 -3.972656 0.734375 -4.425781 1.015625 -4.84375 C 1.304688 -5.257812 1.707031 -5.625 2.21875 -5.9375 C 2.738281 -6.257812 3.335938 -6.507812 4.015625 -6.6875 C 4.703125 -6.863281 5.441406 -6.953125 6.234375 -6.953125 C 7.046875 -6.953125 7.820312 -6.847656 8.5625 -6.640625 C 9.300781 -6.441406 9.9375 -6.160156 10.46875 -5.796875 L 9.734375 -4.75 C 9.304688 -5.050781 8.785156 -5.28125 8.171875 -5.4375 C 7.566406 -5.59375 6.921875 -5.671875 6.234375 -5.671875 C 5.710938 -5.671875 5.195312 -5.617188 4.6875 -5.515625 C 4.175781 -5.410156 3.707031 -5.257812 3.28125 -5.0625 C 2.851562 -4.863281 2.507812 -4.628906 2.25 -4.359375 C 2 -4.097656 1.875 -3.804688 1.875 -3.484375 C 1.875 -3.148438 2 -2.847656 2.25 -2.578125 C 2.507812 -2.316406 2.851562 -2.085938 3.28125 -1.890625 C 3.707031 -1.691406 4.175781 -1.539062 4.6875 -1.4375 C 5.195312 -1.332031 5.710938 -1.28125 6.234375 -1.28125 Z M 6.234375 -1.28125 "/></g></g></g><path stroke-linecap="butt" transform="matrix(-0.0107226, 0.746246, -0.746246, -0.0107226, 128.021132, 23.88461)" fill="none" stroke-linejoin="miter" d="M 0.000180929 2.001734 L 139.207288 2.00109 " stroke="#ffffff" stroke-width="4" stroke-opacity="1" stroke-miterlimit="4"/></svg>